<svg xmlns="http://www.w3.org/2000/svg" xmlns:xlink="http://www.w3.org/1999/xlink" width="500" zoomAndPan="magnify" viewBox="0 0 375 374.999991" height="500" preserveAspectRatio="xMidYMid meet" version="1.0"><defs><g/></defs><g fill="#000000" fill-opacity="1"><g transform="translate(184.671901, 255.294397)"><g><path d="M 79.578125 2.765625 C 64.472656 2.765625 51.851562 -0.226562 41.71875 -6.21875 C 31.59375 -12.207031 24.132812 -20.21875 19.34375 -30.25 C 14.550781 -40.289062 12.15625 -51.300781 12.15625 -63.28125 C 12.15625 -76.726562 14.960938 -88.515625 20.578125 -98.640625 C 26.203125 -108.773438 33.988281 -116.5625 43.9375 -122 C 53.882812 -127.4375 65.117188 -130.15625 77.640625 -130.15625 C 97.171875 -130.15625 111.679688 -124.765625 121.171875 -113.984375 C 130.660156 -103.203125 135.40625 -88.050781 135.40625 -68.53125 C 135.40625 -63.550781 135.128906 -58.394531 134.578125 -53.0625 L 43.390625 -53.0625 C 45.410156 -41.820312 49.414062 -33.710938 55.40625 -28.734375 C 61.394531 -23.765625 69.726562 -21.28125 80.40625 -21.28125 C 89.25 -21.28125 96.523438 -22.015625 102.234375 -23.484375 C 107.953125 -24.960938 113.203125 -26.988281 117.984375 -29.5625 L 127.109375 -8.296875 C 122.503906 -5.347656 116.238281 -2.765625 108.3125 -0.546875 C 100.394531 1.660156 90.816406 2.765625 79.578125 2.765625 Z M 106.390625 -73.78125 C 106.566406 -85.195312 104.078125 -93.253906 98.921875 -97.953125 C 93.765625 -102.648438 86.394531 -105 76.8125 -105 C 57.476562 -105 46.335938 -94.59375 43.390625 -73.78125 Z M 106.390625 -73.78125 "/></g></g></g><g fill="#000000" fill-opacity="1"><g transform="translate(43.317279, 255.294397)"><g><path d="M 79.578125 2.765625 C 64.472656 2.765625 51.851562 -0.226562 41.71875 -6.21875 C 31.59375 -12.207031 24.132812 -20.21875 19.34375 -30.25 C 14.550781 -40.289062 12.15625 -51.300781 12.15625 -63.28125 C 12.15625 -76.726562 14.960938 -88.515625 20.578125 -98.640625 C 26.203125 -108.773438 33.988281 -116.5625 43.9375 -122 C 53.882812 -127.4375 65.117188 -130.15625 77.640625 -130.15625 C 97.171875 -130.15625 111.679688 -124.765625 121.171875 -113.984375 C 130.660156 -103.203125 135.40625 -88.050781 135.40625 -68.53125 C 135.40625 -63.550781 135.128906 -58.394531 134.578125 -53.0625 L 43.390625 -53.0625 C 45.410156 -41.820312 49.414062 -33.710938 55.40625 -28.734375 C 61.394531 -23.765625 69.726562 -21.28125 80.40625 -21.28125 C 89.25 -21.28125 96.523438 -22.015625 102.234375 -23.484375 C 107.953125 -24.960938 113.203125 -26.988281 117.984375 -29.5625 L 127.109375 -8.296875 C 122.503906 -5.347656 116.238281 -2.765625 108.3125 -0.546875 C 100.394531 1.660156 90.816406 2.765625 79.578125 2.765625 Z M 106.390625 -73.78125 C 106.566406 -85.195312 104.078125 -93.253906 98.921875 -97.953125 C 93.765625 -102.648438 86.394531 -105 76.8125 -105 C 57.476562 -105 46.335938 -94.59375 43.390625 -73.78125 Z M 106.390625 -73.78125 "/></g></g></g></svg>
